<svg width="17" height="17" viewBox="0 0 17 17" fill="none" xmlns="http://www.w3.org/2000/svg">
<path d="M8.33333 0C3.73833 0 0 3.73833 0 8.33333C0 12.9283 3.73833 16.6667 8.33333 16.6667C12.9283 16.6667 16.6667 12.9283 16.6667 8.33333C16.6667 3.73833 12.9283 0 8.33333 0ZM8.33333 15C4.6575 15 1.66667 12.0092 1.66667 8.33333C1.66667 4.6575 4.6575 1.66667 8.33333 1.66667C12.0092 1.66667 15 4.6575 15 8.33333C15 12.0092 12.0092 15 8.33333 15Z" fill="white"/>
<path d="M9.16667 4.1665H7.5V8.67817L10.2442 11.4223L11.4225 10.244L9.16667 7.98817V4.1665Z" fill="white"/>
</svg>
