<svg width="18" height="16" viewBox="0 0 18 16" fill="none" xmlns="http://www.w3.org/2000/svg">
<path fill-rule="evenodd" clip-rule="evenodd" d="M10.207 3.36842V1.68421H6.80466V3.36842H10.207ZM1.70117 5.05263V14.3158H15.3105V5.05263H1.70117ZM15.3105 3.36842C16.2546 3.36842 17.0117 4.11789 17.0117 5.05263V14.3158C17.0117 15.2505 16.2546 16 15.3105 16H1.70117C0.757019 16 0 15.2505 0 14.3158L0.00850582 5.05263C0.00850582 4.11789 0.757019 3.36842 1.70117 3.36842H5.1035V1.68421C5.1035 0.749474 5.86052 0 6.80466 0H10.207C11.1511 0 11.9082 0.749474 11.9082 1.68421V3.36842H15.3105Z" fill="#8A8A8A"/>
</svg>
