<svg width="14" height="15" viewBox="0 0 14 15" fill="none" xmlns="http://www.w3.org/2000/svg">
<path d="M6.94901 7.66667C8.82715 7.66667 10.3497 6.17428 10.3497 4.33333C10.3497 2.49238 8.82715 1 6.94901 1C5.07087 1 3.54834 2.49238 3.54834 4.33333C3.54834 6.17428 5.07087 7.66667 6.94901 7.66667Z" stroke="#8A8A8A"/>
<path d="M10.3496 9H10.589C11.0862 9.00014 11.5663 9.17824 11.939 9.50085C12.3117 9.82346 12.5514 10.2684 12.6131 10.752L12.879 12.8347C12.9029 13.0223 12.8858 13.2127 12.8289 13.3934C12.772 13.5741 12.6765 13.7408 12.5489 13.8825C12.4212 14.0243 12.2642 14.1378 12.0884 14.2155C11.9125 14.2932 11.7218 14.3334 11.5289 14.3333H2.36887C2.17597 14.3334 1.98527 14.2932 1.80942 14.2155C1.63357 14.1378 1.4766 14.0243 1.34892 13.8825C1.22124 13.7408 1.12578 13.5741 1.06886 13.3934C1.01194 13.2127 0.99488 13.0223 1.0188 12.8347L1.28405 10.752C1.34574 10.2681 1.58563 9.82305 1.95863 9.50041C2.33163 9.17777 2.81203 8.99981 3.30949 9H3.54822" stroke="#8A8A8A" stroke-linecap="round" stroke-linejoin="round"/>
</svg>
