<svg width="21" height="16" viewBox="0 0 21 16" fill="none" xmlns="http://www.w3.org/2000/svg">
<path d="M0 3.27273C0 2.40475 0.344804 1.57231 0.95856 0.95856C1.57231 0.344804 2.40475 0 3.27273 0H17.0909C17.9589 0 18.7913 0.344804 19.4051 0.95856C20.0188 1.57231 20.3636 2.40475 20.3636 3.27273V12.7273C20.3636 13.5953 20.0188 14.4277 19.4051 15.0414C18.7913 15.6552 17.9589 16 17.0909 16H3.27273C2.40475 16 1.57231 15.6552 0.95856 15.0414C0.344804 14.4277 0 13.5953 0 12.7273V3.27273ZM3.27273 1.45455C2.79052 1.45455 2.32805 1.6461 1.98708 1.98708C1.6461 2.32805 1.45455 2.79052 1.45455 3.27273V4.36364H18.9091V3.27273C18.9091 2.79052 18.7175 2.32805 18.3766 1.98708C18.0356 1.6461 17.5731 1.45455 17.0909 1.45455H3.27273ZM1.45455 12.7273C1.45455 13.2095 1.6461 13.6719 1.98708 14.0129C2.32805 14.3539 2.79052 14.5455 3.27273 14.5455H17.0909C17.5731 14.5455 18.0356 14.3539 18.3766 14.0129C18.7175 13.6719 18.9091 13.2095 18.9091 12.7273V5.81818H1.45455V12.7273ZM13.8182 10.1818H16C16.1929 10.1818 16.3779 10.2584 16.5143 10.3948C16.6507 10.5312 16.7273 10.7162 16.7273 10.9091C16.7273 11.102 16.6507 11.287 16.5143 11.4234C16.3779 11.5597 16.1929 11.6364 16 11.6364H13.8182C13.6253 11.6364 13.4403 11.5597 13.3039 11.4234C13.1675 11.287 13.0909 11.102 13.0909 10.9091C13.0909 10.7162 13.1675 10.5312 13.3039 10.3948C13.4403 10.2584 13.6253 10.1818 13.8182 10.1818Z" fill="#8A8A8A"/>
</svg>
