<svg width="16" height="21" viewBox="0 0 16 21" fill="none" xmlns="http://www.w3.org/2000/svg">
<path d="M9.45455 13.0909C9.45455 13.4767 9.3013 13.8466 9.02852 14.1194C8.75574 14.3922 8.38577 14.5455 8 14.5455C7.61423 14.5455 7.24426 14.3922 6.97148 14.1194C6.6987 13.8466 6.54545 13.4767 6.54545 13.0909C6.54545 12.7051 6.6987 12.3352 6.97148 12.0624C7.24426 11.7896 7.61423 11.6364 8 11.6364C8.38577 11.6364 8.75574 11.7896 9.02852 12.0624C9.3013 12.3352 9.45455 12.7051 9.45455 13.0909ZM3.63636 5.81818V4.36364C3.63636 3.20633 4.0961 2.09642 4.91444 1.27808C5.73278 0.459739 6.84269 0 8 0C9.15731 0 10.2672 0.459739 11.0856 1.27808C11.9039 2.09642 12.3636 3.20633 12.3636 4.36364V5.81818H13.4545C14.1296 5.81818 14.7771 6.08636 15.2545 6.56373C15.7318 7.04109 16 7.68854 16 8.36364V17.8182C16 18.4933 15.7318 19.1407 15.2545 19.6181C14.7771 20.0955 14.1296 20.3636 13.4545 20.3636H2.54545C1.87036 20.3636 1.22291 20.0955 0.745547 19.6181C0.268181 19.1407 0 18.4933 0 17.8182V8.36364C0 7.68854 0.268181 7.04109 0.745547 6.56373C1.22291 6.08636 1.87036 5.81818 2.54545 5.81818H3.63636ZM5.09091 4.36364V5.81818H10.9091V4.36364C10.9091 3.5921 10.6026 2.85216 10.057 2.3066C9.51148 1.76104 8.77154 1.45455 8 1.45455C7.22846 1.45455 6.48852 1.76104 5.94296 2.3066C5.3974 2.85216 5.09091 3.5921 5.09091 4.36364ZM2.54545 7.27273C2.25613 7.27273 1.97865 7.38766 1.77407 7.59225C1.56948 7.79683 1.45455 8.07431 1.45455 8.36364V17.8182C1.45455 18.1075 1.56948 18.385 1.77407 18.5896C1.97865 18.7942 2.25613 18.9091 2.54545 18.9091H13.4545C13.7439 18.9091 14.0213 18.7942 14.2259 18.5896C14.4305 18.385 14.5455 18.1075 14.5455 17.8182V8.36364C14.5455 8.07431 14.4305 7.79683 14.2259 7.59225C14.0213 7.38766 13.7439 7.27273 13.4545 7.27273H2.54545Z" fill="#8A8A8A"/>
</svg>
