<svg width="17" height="16" viewBox="0 0 17 16" fill="none" xmlns="http://www.w3.org/2000/svg">
<path d="M3.03002 2V13H9.09002V2H3.03002ZM2.52502 1H9.59502C9.72895 1 9.8574 1.05268 9.95211 1.14645C10.0468 1.24021 10.1 1.36739 10.1 1.5V13.5C10.1 13.6326 10.0468 13.7598 9.95211 13.8536C9.8574 13.9473 9.72895 14 9.59502 14H2.52502C2.39109 14 2.26264 13.9473 2.16793 13.8536C2.07322 13.7598 2.02002 13.6326 2.02002 13.5V1.5C2.02002 1.36739 2.07322 1.24021 2.16793 1.14645C2.26264 1.05268 2.39109 1 2.52502 1Z" fill="#8A8A8A"/>
<path d="M4.04001 4H8.08001V5H4.04001V4ZM4.04001 7H8.08001V8H4.04001V7ZM4.04001 10H8.08001V11H4.04001V10ZM10.1 8H12.12V9H10.1V8ZM10.1 10H12.12V11H10.1V10ZM1.01001 13H15.15V14H1.01001V13Z" fill="#8A8A8A"/>
<path d="M10.1 6V13H13.13V6H10.1ZM9.59497 5H13.635C13.7689 5 13.8973 5.05268 13.9921 5.14645C14.0868 5.24021 14.14 5.36739 14.14 5.5V13.5C14.14 13.6326 14.0868 13.7598 13.9921 13.8536C13.8973 13.9473 13.7689 14 13.635 14H9.59497C9.46103 14 9.33258 13.9473 9.23788 13.8536C9.14317 13.7598 9.08997 13.6326 9.08997 13.5V5.5C9.08997 5.36739 9.14317 5.24021 9.23788 5.14645C9.33258 5.05268 9.46103 5 9.59497 5Z" fill="#8A8A8A"/>
</svg>
