<svg width="15" height="17" viewBox="0 0 15 17" fill="none" xmlns="http://www.w3.org/2000/svg">
<path d="M4.5 2.06237e-07C4.18967 -0.00016248 3.88694 0.0959278 3.63351 0.275028C3.38008 0.454129 3.18844 0.707422 3.085 1H1.5C1.10218 1 0.720644 1.15804 0.43934 1.43934C0.158035 1.72064 0 2.10218 0 2.5V14.5C0 14.8978 0.158035 15.2794 0.43934 15.5607C0.720644 15.842 1.10218 16 1.5 16H4.003C4.01047 15.8829 4.02855 15.7668 4.057 15.653L4.221 15H1.5C1.36739 15 1.24021 14.9473 1.14645 14.8536C1.05268 14.7598 1 14.6326 1 14.5V2.5C1 2.36739 1.05268 2.24022 1.14645 2.14645C1.24021 2.05268 1.36739 2 1.5 2H3.085C3.18844 2.29258 3.38008 2.54587 3.63351 2.72497C3.88694 2.90407 4.18967 3.00016 4.5 3H7.5C7.81033 3.00016 8.11306 2.90407 8.36649 2.72497C8.61992 2.54587 8.81156 2.29258 8.915 2H10.5C10.6326 2 10.7598 2.05268 10.8536 2.14645C10.9473 2.24022 11 2.36739 11 2.5V7.232C11.32 7.095 11.659 7.019 12 7.003V2.5C12 2.10218 11.842 1.72064 11.5607 1.43934C11.2794 1.15804 10.8978 1 10.5 1H8.915C8.81156 0.707422 8.61992 0.454129 8.36649 0.275028C8.11306 0.0959278 7.81033 -0.00016248 7.5 2.06237e-07H4.5ZM4 1.5C4 1.36739 4.05268 1.24022 4.14645 1.14645C4.24021 1.05268 4.36739 1 4.5 1H7.5C7.63261 1 7.75979 1.05268 7.85355 1.14645C7.94732 1.24022 8 1.36739 8 1.5C8 1.63261 7.94732 1.75979 7.85355 1.85355C7.75979 1.94732 7.63261 2 7.5 2H4.5C4.36739 2 4.24021 1.94732 4.14645 1.85355C4.05268 1.75979 4 1.63261 4 1.5ZM5.98 13.377L10.81 8.547C11.1609 8.19638 11.6367 7.99952 12.1327 7.9997C12.6287 7.99989 13.1044 8.19712 13.455 8.548C13.8056 8.89888 14.0025 9.37467 14.0023 9.87071C14.0021 10.3667 13.8049 10.8424 13.454 11.193L8.624 16.022C8.34263 16.3035 7.99008 16.5033 7.604 16.6L6.106 16.974C5.95705 17.0111 5.80103 17.0091 5.6531 16.9681C5.50516 16.9271 5.37035 16.8485 5.26175 16.74C5.15316 16.6315 5.07447 16.4968 5.03333 16.3489C4.9922 16.201 4.99002 16.045 5.027 15.896L5.402 14.398C5.49791 14.0116 5.69781 13.6588 5.98 13.378V13.377Z" fill="#8A8A8A"/>
</svg>
