<svg width="17" height="12" viewBox="0 0 17 12" fill="none" xmlns="http://www.w3.org/2000/svg">
<path d="M14.9564 0H1.15049C0.84536 0 0.552729 0.120408 0.33697 0.334735C0.121212 0.549062 0 0.839753 0 1.14286V10.2857C0 10.5888 0.121212 10.8795 0.33697 11.0938C0.552729 11.3082 0.84536 11.4286 1.15049 11.4286H14.9564C15.2615 11.4286 15.5541 11.3082 15.7699 11.0938C15.9856 10.8795 16.1068 10.5888 16.1068 10.2857V1.14286C16.1068 0.839753 15.9856 0.549062 15.7699 0.334735C15.5541 0.120408 15.2615 0 14.9564 0ZM13.6908 1.14286L8.05342 5.01714L2.41603 1.14286H13.6908ZM1.15049 10.2857V1.66286L7.72553 6.18286C7.82183 6.24922 7.93623 6.28478 8.05342 6.28478C8.17062 6.28478 8.28502 6.24922 8.38131 6.18286L14.9564 1.66286V10.2857H1.15049Z" fill="#8A8A8A"/>
</svg>
