<svg width="17" height="16" viewBox="0 0 17 16" fill="none" xmlns="http://www.w3.org/2000/svg">
<g clip-path="url(#clip0_92_1442)">
<path d="M3.67839 1.32805C3.61896 1.25211 3.54395 1.1896 3.45833 1.14468C3.37271 1.09975 3.27845 1.07343 3.18181 1.06747C3.08517 1.06151 2.98836 1.07605 2.8978 1.11012C2.80725 1.14418 2.72503 1.19699 2.65661 1.26505L1.6157 2.30005C1.12948 2.78405 0.95029 3.46905 1.1627 4.07005C2.04429 6.55764 3.47835 8.81615 5.35853 10.6781C7.23289 12.5457 9.50648 13.9703 12.0107 14.8461C12.6157 15.0571 13.3052 14.8791 13.7925 14.3961L14.8334 13.3621C14.9019 13.2941 14.9551 13.2124 14.9894 13.1225C15.0236 13.0325 15.0383 12.9363 15.0323 12.8403C15.0263 12.7443 14.9998 12.6507 14.9546 12.5656C14.9093 12.4806 14.8464 12.4061 14.77 12.3471L12.4476 10.5531C12.3659 10.4901 12.2709 10.4465 12.1698 10.4253C12.0686 10.4042 11.964 10.4061 11.8637 10.4311L9.65906 10.9781C9.36479 11.0511 9.05649 11.0472 8.76417 10.9668C8.47185 10.8864 8.20548 10.7321 7.99099 10.5191L5.51859 8.06205C5.30394 7.84909 5.14846 7.58453 5.06731 7.29415C4.98616 7.00377 4.9821 6.69746 5.05552 6.40505L5.60718 4.21505C5.63226 4.11545 5.63423 4.01149 5.61295 3.91101C5.59168 3.81054 5.54771 3.71618 5.48437 3.63505L3.67839 1.32805ZM1.89657 0.511051C2.07273 0.336 2.28437 0.200181 2.51742 0.112612C2.75048 0.0250429 2.99963 -0.0122724 3.24832 0.00314389C3.497 0.0185602 3.73955 0.0863553 3.95984 0.202028C4.18012 0.3177 4.37312 0.478602 4.52601 0.674051L6.33199 2.98005C6.66319 3.40305 6.77996 3.95405 6.64909 4.47405L6.09844 6.66405C6.06997 6.77748 6.07151 6.8963 6.10291 7.00896C6.1343 7.12163 6.19449 7.22431 6.27763 7.30705L8.75104 9.76405C8.83443 9.8468 8.93797 9.90669 9.05158 9.93789C9.16519 9.96908 9.285 9.97052 9.39934 9.94205L11.603 9.39505C11.8613 9.33089 12.1309 9.32591 12.3915 9.38048C12.652 9.43505 12.8967 9.54775 13.1069 9.71005L15.4283 11.5041C16.2629 12.149 16.3394 13.3741 15.5924 14.1151L14.5515 15.1491C13.8066 15.8891 12.6932 16.2141 11.6553 15.8511C8.99886 14.9226 6.58695 13.4119 4.59849 11.4311C2.60455 9.45607 1.08378 7.06051 0.148974 4.42205C-0.215443 3.39205 0.111727 2.28505 0.856669 1.54505L1.89757 0.511051H1.89657Z" fill="#8A8A8A"/>
</g>
<defs>
<clipPath id="clip0_92_1442">
<rect width="16.1068" height="16" fill="white"/>
</clipPath>
</defs>
</svg>
