<svg width="31" height="22" viewBox="0 0 31 22" fill="none" xmlns="http://www.w3.org/2000/svg">
<path d="M10.9999 12.4286C14.1558 12.4286 16.7142 9.8702 16.7142 6.71429C16.7142 3.55837 14.1558 1 10.9999 1C7.84402 1 5.28564 3.55837 5.28564 6.71429C5.28564 9.8702 7.84402 12.4286 10.9999 12.4286Z" stroke="#288ED8" stroke-width="2" stroke-linecap="round" stroke-linejoin="round"/>
<path d="M21 21C21 16.2657 16.5229 12.4286 11 12.4286C5.47714 12.4286 1 16.2657 1 21M19.5714 12.4286C20.5263 12.4285 21.4659 12.1892 22.3044 11.7325C23.1429 11.2758 23.8536 10.6162 24.3716 9.81406C24.8895 9.01192 25.1982 8.09277 25.2695 7.14059C25.3407 6.18842 25.1722 5.23357 24.7794 4.36329C24.3865 3.49301 23.7819 2.73504 23.0206 2.15864C22.2594 1.58224 21.3659 1.20578 20.4217 1.06366C19.4775 0.921532 18.5127 1.01828 17.6155 1.34505C16.7183 1.67183 15.9173 2.21821 15.2857 2.93429" stroke="#288ED8" stroke-width="2" stroke-linecap="round" stroke-linejoin="round"/>
<path d="M29.5714 20.9998C29.5714 16.2655 25.0942 12.4283 19.5714 12.4283C18.4185 12.4283 16.5671 12.0098 15.2856 10.6641" stroke="#288ED8" stroke-width="2" stroke-linecap="round" stroke-linejoin="round"/>
</svg>
