<svg width="24" height="24" viewBox="0 0 20 20" fill="none" xmlns="http://www.w3.org/2000/svg">
<path d="M1 3C1 1.89543 1.89543 1 3 1H18.5V14L14 18.5H1L1 3Z" fill="#99C7E9"/>
<path d="M19 13V3C19 2.46957 18.7893 1.96086 18.4142 1.58579C18.0391 1.21071 17.5304 1 17 1H10M19 13V13.172C18.9999 13.7024 18.7891 14.211 18.414 14.586L14.586 18.414C14.211 18.7891 13.7024 18.9999 13.172 19H13M19 13H15C14.4696 13 13.9609 13.2107 13.5858 13.5858C13.2107 13.9609 13 14.4696 13 15V19M13 19H3C2.46957 19 1.96086 18.7893 1.58579 18.4142C1.21071 18.0391 1 17.5304 1 17V10M11 5H15M8 9H15M5 13H9M4 1V4M4 7V4M4 4H7M4 4H1" stroke="#1C6BA4" stroke-width="2" stroke-linecap="round" stroke-linejoin="round"/>
</svg>
