<svg width="24" height="24" viewBox="0 0 22 22" fill="none" xmlns="http://www.w3.org/2000/svg">
<path fill-rule="evenodd" clip-rule="evenodd" d="M0 7C0 4.23858 2.23858 2 5 2H17C19.7614 2 22 4.23857 22 7V17C22 19.7614 19.7614 22 17 22H5C2.23857 22 0 19.7614 0 17V7ZM5 4C3.34314 4 2 5.34314 2 7V17C2 18.6568 3.34315 20 5 20H17C18.6568 20 20 18.6568 20 17V7C20 5.34315 18.6568 4 17 4H5Z" fill="#288ED8"/>
<path fill-rule="evenodd" clip-rule="evenodd" d="M7 0C7.55228 0 8 0.447715 8 1V5C8 5.55228 7.55228 6 7 6C6.44772 6 6 5.55228 6 5V1C6 0.447715 6.44772 0 7 0ZM15 0C15.5523 0 16 0.447715 16 1V5C16 5.55228 15.5523 6 15 6C14.4477 6 14 5.55228 14 5V1C14 0.447715 14.4477 0 15 0ZM0 9C0 8.44772 0.447715 8 1 8H21C21.5523 8 22 8.44772 22 9C22 9.55229 21.5523 10 21 10H1C0.447715 10 0 9.55229 0 9Z" fill="#288ED8"/>
</svg>
