<svg width="26" height="26" viewBox="0 0 26 26" fill="none" xmlns="http://www.w3.org/2000/svg">
<path d="M10.7667 2.75599C11.3347 0.414668 14.6653 0.414668 15.2333 2.75599C15.3185 3.10773 15.4857 3.43437 15.721 3.70933C15.9563 3.98429 16.2532 4.1998 16.5875 4.33832C16.9218 4.47685 17.2842 4.53446 17.6451 4.50649C18.0059 4.47851 18.355 4.36573 18.664 4.17733C20.7213 2.92399 23.0773 5.27867 21.8239 7.33732C21.6359 7.6462 21.5232 7.9951 21.4954 8.35569C21.4674 8.71627 21.525 9.07835 21.6634 9.41249C21.8017 9.74665 22.017 10.0434 22.2916 10.2787C22.5663 10.514 22.8925 10.6812 23.244 10.7667C25.5853 11.3347 25.5853 14.6653 23.244 15.2333C22.8923 15.3185 22.5657 15.4857 22.2906 15.721C22.0157 15.9563 21.8002 16.2532 21.6617 16.5875C21.5231 16.9218 21.4655 17.2842 21.4935 17.6451C21.5214 18.0059 21.6342 18.355 21.8226 18.664C23.076 20.7213 20.7213 23.0773 18.6627 21.8239C18.3538 21.6359 18.0048 21.5232 17.6443 21.4954C17.2837 21.4674 16.9216 21.525 16.5875 21.6634C16.2533 21.8017 15.9565 22.017 15.7212 22.2916C15.4859 22.5663 15.3187 22.8925 15.2333 23.244C14.6653 25.5853 11.3347 25.5853 10.7667 23.244C10.6814 22.8923 10.5144 22.5657 10.279 22.2906C10.0437 22.0157 9.7468 21.8002 9.41246 21.6617C9.0781 21.5231 8.71578 21.4655 8.35495 21.4935C7.99412 21.5214 7.64499 21.6342 7.33599 21.8226C5.27867 23.076 2.92266 20.7213 4.176 18.6627C4.36414 18.3538 4.47673 18.0048 4.50464 17.6443C4.53256 17.2837 4.47499 16.9216 4.33662 16.5875C4.19826 16.2533 3.98301 15.9565 3.70836 15.7212C3.43371 15.4859 3.10741 15.3187 2.75599 15.2333C0.414668 14.6653 0.414668 11.3347 2.75599 10.7667C3.10773 10.6814 3.43437 10.5144 3.70933 10.279C3.98429 10.0437 4.1998 9.7468 4.33832 9.41246C4.47685 9.0781 4.53446 8.71578 4.50649 8.35495C4.47851 7.99412 4.36573 7.64499 4.17733 7.33599C2.92399 5.27867 5.27867 2.92266 7.33732 4.176C8.67066 4.98666 10.3987 4.26933 10.7667 2.75599Z" stroke="#288ED8" stroke-width="2" stroke-linecap="round" stroke-linejoin="round"/>
<path d="M13.0005 16.9998C15.2096 16.9998 17.0005 15.2089 17.0005 12.9997C17.0005 10.7906 15.2096 8.99976 13.0005 8.99976C10.7913 8.99976 9.00049 10.7906 9.00049 12.9997C9.00049 15.2089 10.7913 16.9998 13.0005 16.9998Z" stroke="#288ED8" stroke-width="2" stroke-linecap="round" stroke-linejoin="round"/>
</svg>
