<svg width="27" height="27" viewBox="0 0 27 27" fill="none" xmlns="http://www.w3.org/2000/svg">
<path d="M10.8575 2.84682C11.4255 0.505489 14.7562 0.505489 15.3241 2.84682C15.4093 3.19855 15.5765 3.52519 15.8118 3.80015C16.0471 4.07511 16.344 4.29062 16.6783 4.42915C17.0126 4.56767 17.375 4.62529 17.7359 4.59731C18.0967 4.56933 18.4458 4.45655 18.7548 4.26815C20.8121 3.01481 23.1682 5.36949 21.9148 7.42815C21.7267 7.73702 21.614 8.08592 21.5862 8.44651C21.5582 8.80709 21.6158 9.16918 21.7542 9.50331C21.8926 9.83747 22.1078 10.1342 22.3824 10.3695C22.6571 10.6048 22.9834 10.772 23.3348 10.8575C25.6762 11.4255 25.6762 14.7562 23.3348 15.3241C22.9831 15.4093 22.6565 15.5765 22.3814 15.8118C22.1065 16.0471 21.891 16.344 21.7525 16.6783C21.6139 17.0126 21.5563 17.375 21.5843 17.7359C21.6122 18.0967 21.725 18.4458 21.9134 18.7548C23.1668 20.8121 20.8121 23.1682 18.7535 21.9148C18.4446 21.7267 18.0956 21.614 17.7352 21.5862C17.3746 21.5582 17.0124 21.6158 16.6783 21.7542C16.3441 21.8926 16.0474 22.1078 15.812 22.3824C15.5767 22.6571 15.4096 22.9834 15.3241 23.3348C14.7562 25.6762 11.4255 25.6762 10.8575 23.3348C10.7723 22.9831 10.6052 22.6565 10.3699 22.3814C10.1345 22.1065 9.83762 21.891 9.50328 21.7525C9.16892 21.6139 8.8066 21.5563 8.44577 21.5843C8.08494 21.6122 7.73581 21.725 7.42681 21.9134C5.36949 23.1668 3.01348 20.8121 4.26682 18.7535C4.45496 18.4446 4.56755 18.0956 4.59547 17.7352C4.62338 17.3746 4.56581 17.0124 4.42744 16.6783C4.28908 16.3441 4.07384 16.0474 3.79918 15.812C3.52454 15.5767 3.19823 15.4096 2.84682 15.3241C0.505489 14.7562 0.505489 11.4255 2.84682 10.8575C3.19855 10.7723 3.52519 10.6052 3.80015 10.3699C4.07511 10.1345 4.29062 9.83762 4.42915 9.50328C4.56767 9.16892 4.62529 8.8066 4.59731 8.44577C4.56933 8.08494 4.45655 7.73581 4.26815 7.42681C3.01481 5.36949 5.36949 3.01348 7.42815 4.26682C8.76148 5.07748 10.4895 4.36015 10.8575 2.84682Z" fill="#99C7E9" stroke="#1C6BA4" stroke-width="2.18182" stroke-linecap="round" stroke-linejoin="round"/>
<path d="M13.0909 17.0909C15.2999 17.0909 17.0908 15.3 17.0908 13.0908C17.0908 10.8817 15.2999 9.09082 13.0909 9.09082C10.8817 9.09082 9.09082 10.8817 9.09082 13.0908C9.09082 15.3 10.8817 17.0909 13.0909 17.0909Z" fill="#99C7E9" stroke="#1C6BA4" stroke-width="2.18182" stroke-linecap="round" stroke-linejoin="round"/>
</svg>
