<svg width="24" height="24" viewBox="0 0 24 24" fill="none" xmlns="http://www.w3.org/2000/svg">
<path fill-rule="evenodd" clip-rule="evenodd" d="M4.8 0C5.46274 0 6 0.537258 6 1.2V3.6H8.4C9.06274 3.6 9.6 4.13726 9.6 4.8C9.6 5.46274 9.06274 6 8.4 6H6V8.4C6 9.06274 5.46274 9.6 4.8 9.6C4.13726 9.6 3.6 9.06274 3.6 8.4V6H1.2C0.537258 6 0 5.46274 0 4.8C0 4.13726 0.537258 3.6 1.2 3.6H3.6V1.2C3.6 0.537258 4.13726 0 4.8 0ZM10.8 1.2C10.8 0.537258 11.3373 0 12 0H20.4C21.3548 0 22.2704 0.379292 22.9455 1.0544C23.6207 1.72954 24 2.64524 24 3.6V15.8064C23.9998 16.7611 23.6204 17.6768 22.9453 18.3517M22.9453 18.3517L18.3518 22.9452C18.3518 22.9453 18.3519 22.9452 18.3518 22.9452C17.6769 23.6203 16.7613 23.9998 15.8066 24H3.6C2.64524 24 1.72954 23.6207 1.0544 22.9455C0.379292 22.2704 0 21.3548 0 20.4V12C0 11.3373 0.537258 10.8 1.2 10.8C1.86274 10.8 2.4 11.3373 2.4 12V20.4C2.4 20.7182 2.52641 21.0234 2.7515 21.2485C2.97651 21.4736 3.28173 21.6 3.6 21.6H14.4V18C14.4 17.0453 14.7793 16.1296 15.4544 15.4544C16.1296 14.7793 17.0453 14.4 18 14.4H21.6V3.6C21.6 3.28173 21.4736 2.97652 21.2485 2.75151C21.0234 2.52642 20.7182 2.4 20.4 2.4H12C11.3373 2.4 10.8 1.86274 10.8 1.2M21.1029 16.8H18C17.6818 16.8 17.3766 16.9264 17.1515 17.1515C16.9264 17.3766 16.8 17.6818 16.8 18V21.1029L21.1029 16.8ZM12 6C12 5.33726 12.5373 4.8 13.2 4.8H18C18.6627 4.8 19.2 5.33726 19.2 6C19.2 6.66274 18.6627 7.2 18 7.2H13.2C12.5373 7.2 12 6.66274 12 6ZM8.4 10.8C8.4 10.1373 8.93726 9.6 9.6 9.6H18C18.6627 9.6 19.2 10.1373 19.2 10.8C19.2 11.4627 18.6627 12 18 12H9.6C8.93726 12 8.4 11.4627 8.4 10.8ZM4.8 15.6C4.8 14.9373 5.33726 14.4 6 14.4H10.8C11.4627 14.4 12 14.9373 12 15.6C12 16.2627 11.4627 16.8 10.8 16.8H6C5.33726 16.8 4.8 16.2627 4.8 15.6Z" fill="#288ED8"/>
</svg>
