<svg width="30" height="30" viewBox="0 0 30 30" fill="none" xmlns="http://www.w3.org/2000/svg">
<path d="M27 4.875C27 3.58207 26.4864 2.34209 25.5721 1.42785C24.6579 0.513614 23.4179 0 22.125 0H4.875C3.58207 0 2.34209 0.513614 1.42785 1.42785C0.513614 2.34209 0 3.58207 0 4.875V22.125C0 23.4179 0.513614 24.6579 1.42785 25.5721C2.34209 26.4864 3.58207 27 4.875 27H13.533C13.0834 26.2987 12.726 25.5425 12.4695 24.75H4.875C4.17881 24.75 3.51113 24.4734 3.01884 23.9812C2.52656 23.4889 2.25 22.8212 2.25 22.125V8.25H24.75V12.4695C25.5425 12.726 26.2987 13.0834 27 13.533V4.875ZM4.875 2.25H22.125C23.574 2.25 24.75 3.426 24.75 4.875V6H2.25V4.875C2.25 3.426 3.426 2.25 4.875 2.25ZM30 21.75C30 19.562 29.1308 17.4635 27.5836 15.9164C26.0365 14.3692 23.938 13.5 21.75 13.5C19.562 13.5 17.4635 14.3692 15.9164 15.9164C14.3692 17.4635 13.5 19.562 13.5 21.75C13.5 23.938 14.3692 26.0365 15.9164 27.5836C17.4635 29.1308 19.562 30 21.75 30C23.938 30 26.0365 29.1308 27.5836 27.5836C29.1308 26.0365 30 23.938 30 21.75ZM21.75 21.75H24.75C24.9489 21.75 25.1397 21.829 25.2803 21.9697C25.421 22.1103 25.5 22.3011 25.5 22.5C25.5 22.6989 25.421 22.8897 25.2803 23.0303C25.1397 23.171 24.9489 23.25 24.75 23.25H21C20.8034 23.25 20.6147 23.1729 20.4744 23.0351C20.3341 22.8974 20.2535 22.7101 20.25 22.5135V17.9985C20.25 17.7996 20.329 17.6088 20.4697 17.4682C20.6103 17.3275 20.8011 17.2485 21 17.2485C21.1989 17.2485 21.3897 17.3275 21.5303 17.4682C21.671 17.6088 21.75 17.7996 21.75 17.9985V21.75Z" fill="white"/>
</svg>
